{"title":"The Block - S12E21 - Master Bedroom Week Begins","uid":15897911,"size":1172535440,"categoryP":"video","categoryS":"tv_shows","magnet":"?xt=urn:btih:73f7e2606481aaefd6225976202e7a19a7a89fc7&amp;dn=The+Block+-+S12E21+-+Master+Bedroom+Week+Begins&amp;tr=udp%3A%2F%2Ftracker.leechers-paradise.org%3A6969&amp;tr=udp%3A%2F%2Fzer0day.ch%3A1337&amp;tr=udp%3A%2F%2Fopen.demonii.com%3A1337&amp;tr=udp%3A%2F%2Ftracker.coppersurfer.tk%3A6969&amp;tr=udp%3A%2F%2Fexodus.desync.com%3A6969","seeders":11,"leechers":7,"uploader":"Bullrout","files":1,"time":1474978226,"description":"The Block - S12E21 - Master Bedroom Week Begins\r\n\r\nThe teams are battling it out for the most luxurious master bedrooms and walk in wardrobes they can afford. Dwindling budgets and tight deadlines keep everyone on their toes. The buyers jury judges the best apartment so far.\r\n\r\nComplete name : The Block - S12E21 - Master Bedroom Week Begins.mkv\r\nFormat : Matroska\r\nFormat version : Version 4 / Version 2\r\nFile size : 1.09 GiB\r\nDuration : 47 min 29 s\r\nOverall bit rate mode : Variable\r\nOverall bit rate : 3 292 kb/s\r\nEncoded date : UTC 2016-09-26 11:29:31\r\nWriting application : mkvmerge v9.4.2 ('So High') 64bit\r\nWriting library : libebml v1.3.4 + libmatroska v1.4.5\r\n\r\nVideo\r\nID : 2\r\nFormat : AVC\r\nFormat/Info : Advanced Video Codec\r\nFormat profile :   \r\nFormat settings, CABAC : Yes\r\nFormat settings, ReFrames : 3 frames\r\nCodec ID : V_MPEG4/ISO/AVC\r\nDuration : 47 min 29 s\r\nBit rate mode : Variable\r\nBit rate : 2 907 kb/s\r\nMaximum bit rate : 3 000 kb/s\r\nWidth : 1 280 pixels\r\nHeight : 720 pixels\r\nDisplay aspect ratio : 16:9\r\nFrame rate mode : Constant\r\nFrame rate : 25.000 FPS\r\nStandard : PAL\r\nColor space : YUV\r\nChroma subsampling : 4:2:0\r\nBit depth : 8 bits\r\nScan type : Progressive\r\nBits/(Pixel*Frame) : 0.126\r\nStream size : 987 MiB (88%)\r\nWriting library : x264 core 112\r\nDefault : Yes\r\nForced : No\r\nColor range : Limited\r\nColor primaries : BT.709\r\nTransfer characteristics : BT.709\r\nMatrix coefficients : BT.709\r\n\r\nAudio\r\nID : 1\r\nFormat : AC-3\r\nFormat/Info : Audio Coding 3\r\nMode extension : CM (complete main)\r\nFormat settings, Endianness : Big\r\nCodec ID : A_AC3\r\nDuration : 47 min 29 s\r\nBit rate mode : Constant\r\nBit rate : 384 kb/s\r\nChannel(s) : 6 channels\r\nChannel positions : Front: L C R, Side: L R, LFE\r\nSampling rate : 48.0 kHz\r\nFrame rate : 31.250 FPS (1536 spf)\r\nCompression mode : Lossy\r\nStream size : 130 MiB (12%)\r\nDefault : Yes\r\nForced : No","torrent":{"xt":"urn:btih:73f7e2606481aaefd6225976202e7a19a7a89fc7","amp;dn":"The+Block+-+S12E21+-+Master+Bedroom+Week+Begins","amp;tr":["udp%3A%2F%2Ftracker.leechers-paradise.org%3A6969","udp%3A%2F%2Fzer0day.ch%3A1337","udp%3A%2F%2Fopen.demonii.com%3A1337","udp%3A%2F%2Ftracker.coppersurfer.tk%3A6969","udp%3A%2F%2Fexodus.desync.com%3A6969"],"infoHash":"73f7e2606481aaefd6225976202e7a19a7a89fc7","infoHashBuffer":{"type":"Buffer","data":[115,247,226,96,100,129,170,239,214,34,89,118,32,46,122,25,167,168,159,199]},"announce":[],"urlList":[]}}